<?xml version="1.0" encoding="utf-8"?>
<!-- Generator: Adobe Illustrator 26.0.1, SVG Export Plug-In . SVG Version: 6.00 Build 0)  -->
<svg version="1.1" id="Layer_1" xmlns="http://www.w3.org/2000/svg" xmlns:xlink="http://www.w3.org/1999/xlink" x="0px" y="0px"
	 viewBox="0 0 200 200" style="enable-background:new 0 0 200 200;" xml:space="preserve">
<style type="text/css">
	.st0{fill:#5A3E6B;}
</style>
<path class="st0" d="M185.17,66.01c-0.31-3.43-4.25-6.79-6.01-7.76c-1.38-0.75-4-1.97-5.25-2.56c-1.92-0.96-4.06-1.57-6.09-2.05
	c-10.81-2.21-21.49-3.99-32.5-3.99h0c-5.47,0.05-10.93,0.72-16.3,1.56c-5.39,0.73-10.74,2.04-15.92,3.67
	c-2.59,0.83-5.18,1.7-7.71,2.67c-1.46,0.57-2.51,1.62-3.4,2.75c-1.76,2.3-2.5,5.13-2.67,7.98c-0.04,1.55,0.6,2.96,1.37,4.23
	c0.69,1.01,1.44,1.96,2.23,2.87c1.44,1.67,3.02,3.2,4.68,4.66c0.33,0.29,0.67,0.58,1,0.86c1.35,1.14,2.74,2.24,4.13,3.33
	c0.35,0.27,0.7,0.54,1.05,0.81c0.7,0.54,1.39,1.08,2.08,1.62c1.04,0.81,2.06,1.63,3.06,2.46c0,0,21.08,17.52,24.03,21.03
	c0.17,0.17,0.34,0.34,0.51,0.51c0.33,0.35,0.66,0.7,0.97,1.07c0.31,0.37,0.61,0.74,0.9,1.13c0.43,0.58,0.84,1.17,1.21,1.79
	c0.08,0.14,0.16,0.29,0.24,0.44c0.29,0.51,0.56,1.03,0.81,1.57c0.87,1.9,1.44,3.94,1.49,6c-0.33,4.74-3.6,9.06-7.23,11.98
	c-0.39,0.31-0.79,0.59-1.2,0.86c-0.41,0.26-0.84,0.51-1.27,0.73c-0.87,0.46-1.77,0.85-2.69,1.22c-1.41,0.56-2.85,1.06-4.31,1.53
	c-0.97,0.31-1.95,0.6-2.94,0.88c-0.49,0.14-0.99,0.27-1.48,0.41c-0.99,0.27-1.98,0.52-2.98,0.76c-0.89,0.22-1.78,0.42-2.68,0.62
	c-0.19,0.04-0.39,0.09-0.58,0.13c-0.87,0.19-1.75,0.37-2.63,0.54c-0.13,0.03-0.27,0.05-0.4,0.08c-0.76,0.15-1.51,0.29-2.27,0.42
	c-0.21,0.03-0.42,0.07-0.63,0.11c-0.88,0.15-1.76,0.28-2.64,0.41c-0.19,0.03-0.39,0.06-0.58,0.08c-0.88,0.12-1.75,0.24-2.63,0.35
	c-0.03,0-0.07,0.01-0.1,0.01c-0.9,0.11-1.81,0.2-2.71,0.29c-0.2,0.02-0.4,0.04-0.6,0.06c-0.89,0.08-1.78,0.16-2.68,0.22
	c-0.13,0.01-0.26,0.02-0.39,0.03c-0.73,0.05-1.47,0.1-2.2,0.13c-0.26,0.01-0.51,0.03-0.77,0.04c-0.89,0.04-1.78,0.07-2.68,0.1
	c-0.19,0-0.38,0.01-0.57,0.01c-0.87,0.02-1.73,0.03-2.6,0.03c-0.06,0-0.12,0-0.18,0c-0.02,0-0.04,0-0.06,0c-0.9,0-1.8-0.01-2.7-0.03
	c-0.26,0-0.52-0.01-0.79-0.02c-0.69-0.02-1.38-0.04-2.07-0.07c-0.27-0.01-0.55-0.02-0.82-0.04c-0.87-0.04-1.74-0.09-2.61-0.15
	c-0.05,0-0.11-0.01-0.16-0.01c-0.92-0.06-1.84-0.14-2.76-0.22c-0.3-0.03-0.6-0.06-0.9-0.08c-0.6-0.06-1.2-0.12-1.8-0.19
	c-0.32-0.04-0.64-0.07-0.96-0.11c-0.92-0.11-1.84-0.22-2.75-0.35c-6.08-0.83-12.28-1.47-18.29-2.7c-6.72-1.51-12.83-4.37-18.2-8.69
	c-1.32-1.02-5.86-5.63-6.08-5.85c-0.39-0.46-0.74-0.9-1.1-1.36c-0.3-0.38-0.59-0.77-0.88-1.16l-0.25-0.36
	c-3.35-4.8-3.6-6.98-3.61-7.3c-0.01-0.49,0.01-1.26,0.05-1.45c0.83-3.47,4.77-5.2,7.83-6.94c5.29-2.86,15.47-6.18,16.92-6.43
	c0.47-0.08,0.82-0.11,1.68-0.11l6.07,0.99c2.65,0.27,5.26,0.8,7.82,1.68c0.66,0.26,1.16,0.12,1.52-0.51
	c-0.11-0.77-0.15-1.58-0.24-2.41c0.52,0.16,0.82,0.31,1.24,0.43c-0.1-0.6-0.15-1.01-0.79-0.98c-0.22-0.01-0.5-0.04-0.52-0.16
	c-0.54-0.85-1.42-0.77-2.17-0.94c-1.7-0.4-3.39-0.68-5-1c-0.36-0.68-0.36-0.68-0.8-0.75c-0.36-0.08-0.71-0.13-1.07-0.18
	c-1.07-0.18-4.2-0.41-4.2-0.41c-0.57-0.02-0.72-0.02-1.31,0.02c-2.12,0.13-6.19,1.7-9.19,2.79c-3.97,1.46-7.79,3.21-11.46,5.33
	c-3.69,2.26-8.1,5.02-8.98,9.67c-0.22,1.23-0.33,2.09-0.23,3.31c0.11,1.22,0.2,2.99,3.23,7.17l0,0l0.43,0.64l0.01,0
	c0.8,1.21,1.65,2.39,2.52,3.41c0.87,1.02,1.71,2.04,3.01,3.42c1.29,1.37,2.63,2.44,2.61,2.46c0.49,0.43,0.9,0.76,1.33,1.07
	c0,0,0.01,0.01,0.01,0.01s0,0,0,0c0.34,0.25,0.7,0.46,1.08,0.76c6.79,5.42,16.4,9.11,24.7,10.61c8.13,1.48,16.39,2.19,24.66,2.67
	c2.11,0.1,4.24,0.16,6.39,0.16c10.46,0,21.17-1.22,31.26-3.47c5.56-1.32,16.34-5.29,20.94-8.82c4.35-3.34,6.84-7.7,7.76-12.57
	c0,0,0.91-5.62-1.8-10.14c-1.76-3.11-3.93-5.57-6.31-8.09c-1.81-1.92-5.8-5.64-10.17-9.36c-4.36-3.72-8.76-6.68-11.7-8.73
	c-5.31-3.69-7.95-5.31-10.77-7.37c-0.83-0.6-1.67-1.19-2.5-1.78c-1.98-1.34-3.9-2.76-5.69-4.34c-0.42-0.37-0.84-0.75-1.24-1.13
	c-0.32-0.32-0.65-0.65-0.97-1c-0.22-0.23-0.43-0.47-0.64-0.71c-0.21-0.24-0.41-0.5-0.6-0.75c-0.19-0.26-0.37-0.52-0.54-0.79
	c-0.34-0.54-0.62-1.09-0.8-1.67c-0.09-0.29-0.17-0.58-0.21-0.88c-0.02-0.15-0.04-0.3-0.05-0.45c0.01-0.63,0.06-1.28,0.15-1.92
	c0.09-0.64,0.23-1.27,0.41-1.89c0.09-0.29,0.18-0.58,0.29-0.88c0.11-0.29,0.23-0.58,0.37-0.87c0.07-0.14,0.14-0.29,0.21-0.43
	c0.15-0.28,0.31-0.56,0.49-0.83c0.35-0.54,0.75-1.03,1.2-1.47c0.22-0.22,0.46-0.42,0.71-0.6c0.37-0.27,0.77-0.5,1.2-0.67
	c1.89-0.71,3.8-1.37,5.72-1.96c3.21-0.99,6.47-1.81,9.78-2.39c0.24-0.04,0.48-0.09,0.73-0.13c0.75-0.12,1.53-0.23,2.24-0.34
	c0.04,0,0.09-0.01,0.13-0.02c0.38-0.05,0.76-0.09,1.14-0.14c0.18-0.02,0.36-0.04,0.54-0.07c0.25-0.03,0.49-0.06,0.73-0.09
	c0.23-0.03,0.47-0.06,0.7-0.09c0.2-0.03,0.41-0.05,0.61-0.08c0.39-0.05,0.79-0.1,1.18-0.15c0.15-0.02,0.31-0.04,0.46-0.06
	c0.28-0.04,0.56-0.07,0.84-0.11c0.18-0.02,0.35-0.04,0.53-0.07c0.25-0.03,0.5-0.06,0.75-0.09c0.19-0.02,0.37-0.05,0.56-0.07
	c0.24-0.03,0.48-0.06,0.72-0.09c0.19-0.02,0.38-0.04,0.57-0.07c0.24-0.03,0.47-0.05,0.71-0.08c0.19-0.02,0.38-0.04,0.58-0.06
	c0.24-0.02,0.47-0.05,0.71-0.07c0.19-0.02,0.38-0.04,0.58-0.06c0.23-0.02,0.47-0.04,0.7-0.07c0.19-0.02,0.39-0.03,0.58-0.05
	c0.24-0.02,0.48-0.04,0.71-0.06c0.19-0.01,0.38-0.03,0.57-0.04c0.24-0.02,0.48-0.03,0.73-0.05c0.18-0.01,0.37-0.02,0.55-0.03
	c0.25-0.01,0.5-0.03,0.75-0.04c0.18-0.01,0.35-0.02,0.53-0.02c0.27-0.01,0.54-0.02,0.81-0.03c0.15,0,0.31-0.01,0.46-0.01
	c0.35-0.01,0.7-0.01,1.05-0.01c0.08,0,0.15,0,0.23,0c0,0,0.01,0,0.01,0c0.43,0,0.86,0,1.29,0.01c4,0.04,8,0.41,11.96,0.95
	c6.59,1.05,13.38,2.07,19.76,3.7c0.94,0.26,1.87,0.51,2.76,0.84c0.44,0.16,0.89,0.33,1.32,0.51c0.44,0.19,0.98,0.39,1.46,0.61
	c0.66,0.27,3.05,1.5,3.89,2c1.62,0.95,2.53,1.78,3.33,3.97c0,0.01,0.01,0.02,0.01,0.03c0.37,1.04,0.04,2.2-0.8,2.91
	c-0.5,0.43-0.92,0.91-1.21,1.56c0.31,0.22,0.49,0.28,0.64,0.39c-0.42,1.58-0.42,1.58,0.89,2.49c1.76-0.39,3.24-1.22,4.52-2.34
	C184.48,69.08,185.36,68.19,185.17,66.01z"/>
</svg>
