<?xml version="1.0" encoding="utf-8"?>
<!-- Generator: Adobe Illustrator 26.0.1, SVG Export Plug-In . SVG Version: 6.00 Build 0)  -->
<svg version="1.1" id="Layer_1" xmlns="http://www.w3.org/2000/svg" xmlns:xlink="http://www.w3.org/1999/xlink" x="0px" y="0px"
	 viewBox="0 0 500 500" style="enable-background:new 0 0 500 500;" xml:space="preserve">
<style type="text/css">
	.st0{fill:#634578;}
</style>
<g>
	<path class="st0" d="M70.1,279.2c2.48,3.46,4.4,6.18,7.27,9.47c1.73-1.8,3.36-3.72,4.96-5.66c0.08-0.1,0.17-0.22,0.26-0.32
		c-1.53-1.62-2.68-2.98-3.85-4.49c-0.72-0.89-1.42-1.78-2.1-2.69C74.39,276.58,72.21,277.82,70.1,279.2"/>
	<path class="st0" d="M123.62,230.35c1.47-2.53,2.73-5.27,3.75-8.24c0.04-0.11,0.08-0.21,0.11-0.32c-1.18-0.05-1.49-0.04-2.7,0.03
		c-4.38,0.25-12.78,3.43-18.98,5.62c-8.19,2.94-16.08,6.46-23.66,10.74c-7.61,4.55-16.72,10.11-18.54,19.49
		c-0.45,2.48-0.68,4.1-0.47,6.67c1.95-1.87,3.88-3.77,5.77-5.69c0.02-0.39,0.07-0.77,0.15-1.16c1.71-6.99,9.86-10.48,16.17-13.97
		c10.92-5.76,31.94-12.45,34.93-12.94C121.14,230.42,121.86,230.36,123.62,230.35"/>
	<path class="st0" d="M443.79,182.31c-1.41,2.53-3.43,4.7-5.81,6.36c-0.02,0.18-0.03,0.36-0.05,0.54
		C440.41,187.38,442.44,185,443.79,182.31"/>
	<path class="st0" d="M449.45,188.97c-3.6,2.15-7.79,3.29-11.97,3.32c-0.03,0.16-0.07,0.32-0.1,0.47
		C441.67,192.6,445.9,191.27,449.45,188.97"/>
	<path class="st0" d="M444.15,197.15l-7.68-1.59C438.92,196.45,441.57,196.81,444.15,197.15"/>
	<path class="st0" d="M392.85,203.29c-0.01,0.02-0.03,0.03-0.04,0.05c3.58,0.45,7.28,0.07,10.72-1.09c-0.18-0.1-0.35-0.19-0.53-0.29
		C399.78,203.12,396.29,203.6,392.85,203.29"/>
	<path class="st0" d="M403.97,202.11c-0.18-0.1-0.36-0.2-0.54-0.3c-0.14,0.05-0.28,0.1-0.43,0.15c0.17,0.1,0.35,0.19,0.53,0.29
		C403.67,202.21,403.82,202.17,403.97,202.11"/>
	<path class="st0" d="M400.49,199.91c-0.11,0.01-0.22,0.02-0.34,0.04c-0.58,0.13-4.44,0.2-4.44,0.2c1.58,0.24,3.2,0.29,4.8,0.15
		L400.49,199.91z"/>
	<path class="st0" d="M314.65,242.78c-3.74-3.87-11.98-11.36-20.99-18.86c-9-7.48-18.1-13.46-24.15-17.59
		c-10.97-7.43-16.41-10.7-22.23-14.84c-1.71-1.22-3.44-2.4-5.16-3.59c-4.09-2.69-8.06-5.56-11.75-8.73
		c-0.87-0.74-1.72-1.5-2.56-2.28c-0.66-0.64-1.34-1.31-2.01-2.01c-0.45-0.47-0.89-0.95-1.32-1.44c-0.43-0.49-0.85-1-1.25-1.52
		s-0.77-1.05-1.12-1.59c-0.69-1.08-1.27-2.2-1.66-3.37c-0.2-0.58-0.34-1.17-0.44-1.77c-0.05-0.3-0.08-0.6-0.1-0.91
		c0.01-1.28,0.12-2.57,0.32-3.86c0.2-1.29,0.48-2.57,0.85-3.8c0.18-0.59,0.38-1.18,0.61-1.77c0.23-0.59,0.48-1.18,0.77-1.76
		c0.14-0.29,0.29-0.58,0.44-0.86c0.31-0.57,0.64-1.13,1-1.67c0.72-1.08,1.55-2.08,2.47-2.95c0.46-0.44,0.95-0.84,1.47-1.21
		c0.77-0.55,1.6-1,2.48-1.35c3.9-1.43,7.84-2.75,11.81-3.95c6.63-2,13.36-3.64,20.19-4.81c0.49-0.09,0.99-0.17,1.51-0.26
		c1.54-0.25,3.16-0.47,4.63-0.69c0.09-0.01,0.18-0.02,0.27-0.03c0.78-0.09,1.57-0.18,2.35-0.28c0.37-0.05,0.75-0.09,1.12-0.14
		c0.5-0.06,1.01-0.12,1.52-0.19c0.48-0.06,0.96-0.12,1.45-0.18c0.42-0.05,0.85-0.11,1.27-0.16c0.81-0.1,1.63-0.2,2.44-0.31
		c0.32-0.04,0.64-0.08,0.96-0.12c0.58-0.07,1.15-0.14,1.73-0.21c0.36-0.05,0.72-0.09,1.09-0.13c0.52-0.06,1.03-0.12,1.55-0.19
		c0.39-0.05,0.77-0.09,1.16-0.14c0.49-0.06,0.99-0.12,1.49-0.17c0.39-0.04,0.78-0.09,1.18-0.13c0.49-0.05,0.98-0.11,1.47-0.16
		c0.4-0.04,0.79-0.08,1.19-0.13c0.49-0.05,0.97-0.1,1.46-0.15c0.4-0.04,0.79-0.08,1.19-0.11c0.48-0.05,0.97-0.09,1.46-0.13
		c0.4-0.04,0.79-0.07,1.19-0.1c0.49-0.04,0.98-0.08,1.47-0.12c0.39-0.03,0.78-0.06,1.17-0.09c0.5-0.03,1-0.07,1.5-0.1
		c0.38-0.02,0.76-0.05,1.14-0.07c0.52-0.03,1.03-0.05,1.55-0.08c0.36-0.02,0.73-0.04,1.09-0.05c0.56-0.02,1.12-0.04,1.68-0.05
		c0.32-0.01,0.64-0.02,0.96-0.03c0.72-0.01,1.44-0.02,2.16-0.02c0.16,0,0.32-0.01,0.47-0.01c0.01,0,0.02,0,0.03,0
		c0.89,0,1.77,0.01,2.66,0.03c8.26,0.08,16.51,0.83,24.7,1.92c13.61,2.12,27.62,4.16,40.79,7.45c1.95,0.52,3.85,1.05,5.7,1.68
		c0.92,0.32,1.83,0.65,2.73,1.03c0.9,0.37,1.79,0.78,2.66,1.23c1.25,0.57,1.84,0.7,2.84,1.42c1.94-1.21,4.52-2.52,7.09-3.46
		c-2.2-1.88-4.23-2.81-6.82-4.01c-3.96-1.93-8.39-3.15-12.58-4.14c-22.31-4.46-44.36-8.04-67.11-8.04h0
		c-11.28,0.11-22.57,1.45-33.66,3.15c-11.14,1.46-22.18,4.12-32.88,7.39c-5.35,1.67-10.69,3.43-15.91,5.38
		c-3.01,1.14-5.18,3.27-7.01,5.53c-3.64,4.62-5.17,10.34-5.51,16.08c-0.09,3.13,1.25,5.97,2.84,8.52c1.43,2.03,2.98,3.95,4.61,5.79
		c2.97,3.36,6.24,6.46,9.66,9.39c0.68,0.59,1.38,1.17,2.07,1.74c2.78,2.3,5.65,4.51,8.52,6.7c0.72,0.55,1.44,1.09,2.16,1.64
		c1.44,1.09,2.88,2.17,4.3,3.26c2.14,1.63,4.26,3.28,6.32,4.96c0,0,43.52,35.29,49.62,42.37c0.35,0.34,0.7,0.69,1.05,1.04
		c0.69,0.7,1.36,1.42,2,2.16c0.64,0.74,1.27,1.49,1.86,2.27c0.89,1.16,1.73,2.36,2.51,3.6c0.17,0.29,0.33,0.59,0.5,0.88
		c0.59,1.03,1.16,2.08,1.66,3.16c1.79,3.82,2.97,7.93,3.08,12.09c-0.68,9.54-7.42,18.25-14.92,24.14c-0.8,0.62-1.63,1.2-2.48,1.73
		c-0.85,0.53-1.73,1.02-2.63,1.48c-1.79,0.92-3.66,1.71-5.56,2.47c-2.91,1.12-5.89,2.14-8.9,3.08c-2.01,0.63-4.03,1.22-6.06,1.78
		c-1.02,0.28-2.04,0.55-3.06,0.82c-2.04,0.54-4.09,1.05-6.15,1.54c-1.84,0.44-3.68,0.85-5.53,1.25c-0.4,0.09-0.8,0.17-1.2,0.26
		c-1.8,0.38-3.61,0.75-5.42,1.09c-0.3,0.06-0.6,0.11-0.89,0.16c-1.66,0.31-3.32,0.6-4.98,0.88c-0.32,0.05-0.64,0.11-0.96,0.16
		c-1.82,0.3-3.64,0.57-5.46,0.83c-0.4,0.06-0.8,0.11-1.2,0.17c-1.81,0.25-3.62,0.48-5.43,0.7c-0.07,0.01-0.14,0.02-0.21,0.03
		c-1.87,0.22-3.73,0.41-5.61,0.59c-0.41,0.04-0.82,0.08-1.23,0.12c-1.84,0.17-3.68,0.32-5.53,0.45c-0.28,0.02-0.55,0.03-0.83,0.05
		c-1.69,0.11-3.38,0.21-5.07,0.29c-0.34,0.02-0.69,0.04-1.03,0.05c-1.84,0.08-3.68,0.15-5.52,0.19c-0.39,0.01-0.78,0.02-1.18,0.03
		c-1.79,0.04-3.57,0.06-5.36,0.06c-0.13,0-0.25,0-0.38,0c-0.05,0-0.09,0-0.14,0c-1.86,0-3.72-0.02-5.58-0.06
		c-0.54-0.01-1.08-0.03-1.62-0.04c-1.42-0.04-2.85-0.08-4.27-0.14c-0.57-0.02-1.14-0.04-1.7-0.07c-1.8-0.08-3.6-0.18-5.39-0.3
		c-0.11-0.01-0.22-0.01-0.33-0.02c-1.9-0.13-3.8-0.28-5.7-0.45c-0.55-0.05-1.1-0.1-1.65-0.15c-1.42-0.13-2.83-0.27-4.24-0.43
		c-0.56-0.06-1.12-0.12-1.68-0.18c-1.9-0.22-3.79-0.45-5.68-0.7c-12.56-1.66-25.36-2.96-37.76-5.44c-13.88-3.04-26.5-8.8-37.58-17.5
		c-2.03,2-4.03,4.05-6.06,6.05c1.8,1.54,3.12,2.46,5,3.72c14.27,9.67,33.81,19.68,50.99,21.39c16.92,2.22,33.84,4.41,50.91,5.37
		c4.36,0.21,8.76,0.31,13.19,0.31c21.6,0,43.72-2.47,64.54-6.99c11.49-2.65,33.73-10.65,43.23-17.77
		c8.98-6.72,14.13-15.51,16.03-25.32c0,0,1.89-11.33-3.71-20.43C324.04,252.81,319.54,247.85,314.65,242.78"/>
	<path class="st0" d="M313.08,259.55c-0.07-0.11-0.13-0.23-0.2-0.35c-0.09-0.17-0.19-0.33-0.27-0.47c-0.73-1.16-1.53-2.32-2.39-3.44
		c-0.56-0.73-1.16-1.46-1.79-2.17c-0.61-0.7-1.26-1.39-1.92-2.07c-0.33-0.34-0.67-0.67-1.01-1l-0.07-0.07l-0.06-0.07
		c-5.92-6.86-48.93-41.76-49.36-42.12c-1.79-1.46-3.73-2.98-6.27-4.92c-1.24-0.94-2.48-1.89-3.73-2.83l-0.57-0.43
		c-0.72-0.54-1.44-1.09-2.16-1.64c-2.59-1.97-5.64-4.31-8.59-6.75c-0.72-0.6-1.43-1.19-2.1-1.77c-3.86-3.31-7.09-6.45-9.86-9.59
		c-0.27-0.31-0.53-0.61-0.79-0.92c-1.02-0.12-2.04-0.24-3.04-0.35c-5.48-0.64-10.65-1.25-16.98-1.64c-2.02-0.12-6.87-0.3-10.17-0.3
		c-1.09,0-1.93,0.02-2.5,0.06l-1.26,0.08c-6.19,0.4-11.2,0.73-15.72,1.64c-0.45-0.29-1.73-1.11-2.24-1.41
		c-7.9-4.8-16.92-7.65-26.49-8.24c-9.56-0.59-17.85,0.46-26.08,2.02c-2.36,0.45-5.16,0.53-7.44,0.01c-1.14-0.26-2.76-0.68-3.45-1.66
		c-1.11-1.57-1.36-2.52-1.57-4.37c-0.43-3.87,0.74-7.72,1.66-11.49c1-4.1,1.17-7.49-0.17-10.9c-1.24-3.16-3.65-5.58-7.05-6.91
		c-4.02-1.57-6.93-1.91-11.24-1.28c-3.63,0.53-5.72,1.85-8.37,4.03c-1.44,1.19-2.82,3.36-3.08,5.01c-0.27,1.7,0.22,3.23,1.58,3.2
		c1.76-0.04,3.23-0.62,4.77-1.58c2.2-1.36,4.52-2.24,7.91-2.13c2.28,0.08,4.81,0.94,6.43,3.03c1.37,1.78,1.21,3.67,0.89,5.55
		c-0.34,2.03-0.85,5.24-1.12,7.27c-0.44,3.29-1.5,8.89-0.98,12.05c0.46,2.8,1.12,4.29,2.68,6.52c1.59,2.26,5.18,3.91,7.99,3.94
		c3.09,0.03,6.58-0.95,13.12-1.09c5.09-0.11,11.06-0.92,15.57-1.52c4.4-0.59,10.44-0.49,12.36-0.13c3.35,0.64,7.79,2.79,10.8,5.52
		c-0.71,0.5-1.38,1.03-2.13,1.62c-0.45,0.35-0.92,0.73-1.45,1.13c-2.96,2.26-5.24,4.59-7.65,7.06c-0.75,0.76-1.51,1.55-2.32,2.35
		c-0.74,0.96-1.44,1.74-2.01,2.38c-0.28,0.31-0.52,0.59-0.72,0.82c-0.6,0.72-1.24,1.42-1.85,2.1c-0.81,0.9-1.66,1.83-2.4,2.79
		c-3.68,4.77-6.6,10.45-9.16,17.86l-0.06,0.16l-0.06,0.15c-1,2.92-2.28,5.74-3.8,8.36c-5.12,8.84-13.14,15.4-23.84,19.5
		c-5.51,2.11-10.05,3.09-14.29,3.09c-1.11,0-2.21-0.07-3.27-0.21c-0.72-0.09-1.42-0.14-2.08-0.14c-3.65,0-6.55,1.4-9.69,4.68
		c-0.82,0.85-1.66,1.71-2.48,2.54l-0.07,0.07c-1.82,1.85-3.77,3.77-5.79,5.71c-2.02,1.94-3.9,3.71-5.73,5.4
		c-5.72,5.29-11.62,9.17-18.02,11.88c-2.67,1.13-4.69,2.31-6.18,3.62L33.48,287l-0.28-0.01c-0.44,0-1.06,0.53-1.51,0.92
		c-0.1,0.09-0.2,0.18-0.3,0.25c-1.63,1.34-3.01,3.02-3.99,4.85c-0.23,0.42-0.43,0.87-0.41,1.27c0.02,0.27,0.22,0.55,0.4,0.56
		l1.17,0.08l-0.63,0.97c-0.49,0.75-0.91,1.53-0.69,2.13c0.13,0.36,0.51,0.66,0.86,0.9c1.79,1.26,4.06,1.96,6.39,1.96
		c1.13,0,2.24-0.16,3.29-0.48l0.07-0.02l0.07-0.01c2.39-0.23,4.78-1.12,7.09-2.64c3.9-2.56,7.55-5.52,11.08-8.37
		c1.32-1.07,2.59-2.25,3.81-3.4c1.17-1.1,2.39-2.23,3.66-3.28c1.89-1.56,3.87-3.01,5.87-4.32c2.16-1.41,4.4-2.68,6.67-3.76
		c6.53-3.12,13.51-4.81,20.74-5.02c9.14-0.26,18.49-0.74,28.58-1.45c17-1.21,30.78-6.61,42.12-16.5c4.6-4.01,10.73-9.24,17.34-14.04
		c7.62-5.54,16.42-8.24,26.91-8.24c1.86,0,3.79,0.09,5.75,0.26c0.94,0.08,8.42,1.11,9.1,1.94c0.13,0.16,0.19,0.35,0.16,0.55
		c-0.16,1.19-2.37,0.93-2.4,0.93c-0.06,0-0.11,0-0.16,0c-0.33-0.02-1.65-0.12-2.67-0.2c-1.12-0.09-2.22-0.26-3.15-0.36
		c-1.9-0.21-4.2-0.33-5.86-0.33c-10.31,0-17.27,1.76-26.68,8.55c-3.4,2.45-7.61,6.15-10.67,8.88c-2.16,1.92-4.74,4.08-7.08,5.97
		c-9.36,7.56-16.61,11-27,13.02c-9.97,1.93-15.48,2.94-23.19,3.19c-0.99,0.03-2.53,0.01-5.62,0.15c-1.15,0.05-2.95,0.12-4.21,0.12
		c-3.67,0-7.6,0.12-11,0.28c-0.42,0.02-0.84,0.03-1.27,0.04c-2.61,0.06-5.08,0.12-6.71,2.2c-0.8,1.02-1.65,3.6-2.57,4.93
		c-0.99,1.45-2.01,2.94-2.96,4.13l-0.1,0.12c-0.06,0.07-0.11,0.14-0.17,0.21c-1.45,1.75-3.17,3.8-5,5.69
		c-3.5,3.64-6.82,6.17-10.45,7.96c-1.74,0.86-3.34,2.12-4.54,3.13c-2.09,1.76-3.45,3.46-4.26,5.36l-0.12,0.27l-0.28,0.1
		c-0.61,0.23-1.1,0.73-1.28,1.33c-0.2,0.67-0.01,1.46,0.47,1.96l0.33,0.34l-0.21,0.42c-0.31,0.61-0.09,1.5,0.52,2.07
		c0.7,0.67,1.75,0.9,2.5,0.97c0.36,0.04,0.75,0.05,1.26,0.05c0.22,0,0.45,0,0.67-0.01l0.36,0l0.05,0l0.05,0.01
		c0.37,0.05,0.75,0.08,1.13,0.08c1.84,0,3.69-0.63,5.35-1.83c4.22-3.02,8.5-6.52,12.73-10.39c0.71-0.65,1.46-1.36,2.27-2.14
		c0.49-0.47,0.99-0.96,1.54-1.51c0.98-0.97,1.95-1.94,2.92-2.92c1.04-1.05,2.09-2.1,3.14-3.14c0.48-0.47,0.94-0.92,1.38-1.34
		c1.65-1.59,3.05-2.87,4.43-4.05c6.17-5.28,13.56-7.95,21.96-7.96c4.57,0,9.47-0.21,14.99-0.63c1.63-0.12,3.3-0.23,4.91-0.34
		c5.25-0.35,10.69-0.71,15.9-1.64c11.98-2.14,21.37-6.73,28.72-14.04c1.53-1.52,3.02-3.12,4.47-4.68c1.76-1.9,3.58-3.86,5.49-5.68
		c2.93-2.8,5.95-5.7,9.45-7.9c4.94-3.12,9.25-4.57,13.56-4.57c3.07,0,6.04,0.74,9.07,2.27c4.62,2.32,9.5,4.36,14.22,6.33
		c3.36,1.41,6.84,2.86,10.21,4.41c15.85,7.29,30.98,10.83,46.23,10.83c0.64,0,1.27-0.01,1.91-0.02c4.93-0.1,9.98-0.72,14.62-1.35
		C313.77,260.8,313.45,260.2,313.08,259.55"/>
	<path class="st0" d="M472.93,286.83c-0.42-1.89-1.51-3.69-3.07-5.08c-0.94-0.84-3.88-2.71-5.38-3.44l-0.02-0.01l-0.04-0.01
		l-0.04-0.02c-0.46-0.23-0.89-0.43-1.32-0.59c-5.62-2.17-10.66-5.38-15.76-8.75c-4.56-3.01-9.05-5.37-13.35-7.01
		c-7.65-2.92-15.53-5.64-23.15-8.27c-3.39-1.17-6.89-2.38-10.33-3.59c-9.13-3.22-10.57-5.25-10.25-14.49l0.03-0.91
		c0.23-6.57,0.47-13.37-1.14-19.9c-1.2-4.87,0.44-8.43,2.91-11.54l0.02-0.02c0.88-1.11,1.86-2.16,2.85-3.19
		c0.25-0.29,0.68-0.7,0.68-0.7l0.02-0.02l0.02-0.01c0.83-0.75,1.75-1.38,2.47-1.7l0.4-0.17l0.33,0.27c0.31,0.25,0.56,0.48,0.77,0.71
		l1.67,1.66c1.31,0.9,2.74,1.72,4.24,2.47c0,0,0.17,0.08,0.19,0.09c1.08,0.53,2.2,1.03,3.37,1.47l0.25,0.09l0.08,0.03
		c1.31,0.48,2.61,0.9,3.88,1.23c0.82,0.04,1.58,0.06,2.31,0.06c2.24,0,4.22-0.2,6.24-0.62c0.53-0.11,1.22-0.49,1.77-0.79
		c0.14-0.08,0.28-0.16,0.42-0.23l0.01-0.01c1.75-1.05,3.93-2.36,4.37-4.25l0.16-0.66l0.68,0.15c0.22,0.05,0.44,0.09,0.66,0.12
		c0.21,0.02,0.44,0.03,0.66,0.03c2.41,0,4.14-1.29,5.31-3.95c0.05-0.12,0.1-0.23,0.15-0.35c0.28-0.69,0.52-1.47,0.71-2.33
		c0.03-0.15,0.07-0.31,0.1-0.46c0.19-0.92,0.34-1.93,0.44-3.01c0.02-0.18,0.03-0.35,0.05-0.53c0.04-0.45,0.07-0.89,0.09-1.3l0-0.03
		l0-0.02c0.4-3.05-1.18-6.39-2.44-9.08l-0.3-0.64l-0.01-0.02l-0.01-0.03c-0.51-1.37-0.46-3.23-0.42-4.87
		c0.02-0.68,0.03-1.32,0.01-1.86c-0.01-1.91-0.09-4.38-0.59-6.82c-0.51-3.2-2.15-6.07-3.74-8.85c-0.66-1.16-1.34-2.35-1.93-3.55
		c-0.71-1.65-0.87-3.4-1.03-5.1c-0.05-0.58-0.11-1.17-0.18-1.75c-0.39-3.59-1.82-6.79-4.04-9.02c-1.37-1.35-2.64-2.04-3.76-2.04
		c-0.2,0-0.4,0.02-0.59,0.06c-1.58,0.39-2.71,1.82-3.71,3.31c-1.19,1.92-2.92,3.63-4.87,4.79c-1.36,0.85-2.88,0.9-4.36,0.95
		c-0.84,0.03-1.64,0.05-2.41,0.22c-0.35,0.06-0.71,0.14-1.08,0.23c-0.53,0.13-1.08,0.27-1.65,0.46l-1.4,0.51
		c-0.84,0.31-1.72,0.67-2.59,1.06c-1.43,0.66-2.84,1.42-4.09,2.2c-0.57,0.36-1.07,0.7-1.5,1.01c-0.05,0.04-0.1,0.07-0.15,0.11
		l-0.12,0.09l-0.14,0.04c-0.91,0.22-1.86,0.33-2.93,0.33c-1.49,0-2.99-0.22-4.45-0.43c-0.87-0.13-1.78-0.26-2.66-0.34
		c-0.08,0-0.17,0-0.25,0c-2.53,0-6.48,0.79-7.78,2.91l-0.26,0.63c-0.3,0.65-0.37,1.46-0.21,2.45l0.1,0.6l0.12,0.69l-0.71,0.09
		c-7.12,0.92-12.29,2.11-15.38,3.54c-0.92,0.43-1.83,0.86-2.72,1.29c-5,2.38-9.72,4.63-15.41,5.23c-8.1,0.85-15.79,3.42-22.86,7.62
		c-4.46,2.65-8.44,4.37-12.17,5.26c-7.91,1.88-14.43,2.91-20.52,3.24c-3.68,0.2-7.57,0.3-11.56,0.3c-11.72,0-23.19-0.82-35.69-1.86
		c2.49,1.95,5.25,3.92,8.37,5.98l0.02,0.01l0.02,0.01l0.27,0.19c1.61,1.11,3.28,2.25,4.92,3.42c3.07,2.18,6.05,4.13,9.82,6.6
		c3.39,2.22,7.24,4.74,12.38,8.22c0.73,0.5,1.51,1.03,2.33,1.58c5.91,4,13.99,9.49,21.98,16.13c8.34,6.93,17.04,14.75,21.15,19.01
		c4.6,4.76,9.42,9.98,13.31,16.66c0.04,0.06,0.07,0.12,0.1,0.18c0.78-0.27,1.55-0.55,2.26-0.85c1.14-0.47,1.75-1.69,1.46-2.88
		c-0.87-3.62-2.62-6.63-4.46-9.82c-0.89-1.54-1.93-3.47-2.66-4.58c-0.47-0.72-1.21-1.84-0.9-2.01c0.31-0.16,1.02,0.16,1.96,0.83
		c1.14,0.81,1.88,1.65,2.76,2.66c5.31,6.12,8.09,13.96,9.85,22.13c0.96,4.48,3.28,7.24,7.52,8.96c6.39,2.59,12.79,5.4,18.99,8.12
		c2.39,1.05,4.78,2.1,7.17,3.14c2.74,1.19,5.48,2.36,8.22,3.54c6.81,2.92,13.86,5.94,20.7,9.1c7.32,3.39,12.48,7.41,16.25,12.68
		c2.27,3.17,5.43,5.83,8.22,8.08c0.94,0.76,1.95,1.44,2.97,2.01l0.09,0.05l0.07,0.07c1.88,1.9,5.37,3.22,8.5,3.22
		c0.74,0,1.44-0.07,2.08-0.22c0.09-0.02,0.17-0.04,0.26-0.06c0.14-0.04,0.4-0.3,0.54-0.44c0.17-0.18,0.33-0.33,0.52-0.42
		c0.31-0.15,0.66-0.22,1.13-0.22c0.25,0,0.5,0.02,0.74,0.04c0.22,0.02,0.42,0.03,0.6,0.03c0.05,0,0.09,0,0.13,0
		c1.02-0.06,2.02-0.45,2.8-1.09c0.18-0.15,0.21-0.22,0.21-0.23c0-0.03,0.01-0.08,0.02-0.12l-2.13-1.64l2.7,0.46
		c0.07,0.01,0.15,0.02,0.22,0.02c0.57,0,0.86-0.45,0.99-0.83c0.22-0.6,0.19-1.36-0.11-2.37c-0.6-2.08-1.83-3.98-3.56-5.51
		c-1-0.89-3.33-2.64-4.95-2.9c-0.65-0.1-1.31-0.36-1.97-0.77c-5.53-3.43-10.1-7.11-13.95-11.27c-2.92-3.15-6.45-5.81-9.21-7.78
		c-8.63-6.17-17.47-12.37-26.02-18.37c-3.82-2.68-7.64-5.36-11.45-8.04c-4.73-3.33-5.72-5.74-4.6-11.19
		c1.25-6.07,1.69-9.27,2.41-14.58c0.14-1.02,0.29-2.11,0.46-3.32c0.04-0.33,0.47-5.94,0.35-7.62l1.38-0.19
		c1.31,5.91,0.81,9.87,0.24,14.47l-0.03,0.23l-0.12,0.95c-0.41,3.33-0.93,7.48-1.38,10.73c-0.44,3.18,0.67,5.44,3.51,7.12
		c5.11,3.03,10.13,6.41,14.11,9.51c3.29,2.56,6.32,3.69,10.78,4.04c5.8,0.45,11.67,1.17,17.34,1.87c0.94,0.12,1.88,0.23,2.82,0.35
		c6.35,0.77,11.62,2.76,16.13,6.07c4.74,3.48,9,6.29,13.05,8.59c0.38,0.22,0.78,0.43,1.2,0.64l0.04,0.02l0.01,0l0.06,0.03l0.04,0.02
		c0.41,0.2,0.91,0.47,1.47,0.76c1.82,0.96,4.32,2.28,5.67,2.45c0.15,0.02,0.31,0.06,0.49,0.11c0.34,0.09,0.75,0.2,1.22,0.2
		c0.38,0,0.73-0.07,1.07-0.23c0.27-0.12,0.34-0.23,0.42-0.37c0.08-0.13,0.2-0.32,0.45-0.44c0.2-0.1,0.42-0.14,0.67-0.14
		c0.33,0,0.64,0.08,0.95,0.16c0.22,0.06,0.45,0.12,0.6,0.12c0.99-0.05,1.86-0.35,2.41-0.81c0.05-0.05,0.19-0.29,0.24-0.43
		c0.04-0.12,0.06-0.35,0.05-0.47l-1.73-1.34l2.33,0.21c0.13,0.01,0.24,0.02,0.35,0.02c0.12,0,0.15-0.02,0.15-0.02
		s0.06-0.05,0.14-0.28C473.03,287.77,473.04,287.32,472.93,286.83z M434.72,190.62c0.08-0.04,0.18-0.03,0.27-0.02
		c0.03,0,0.07,0.01,0.1,0.03c0.02,0.02,0.03,0.04,0.04,0.06c0.06,0.11,0.11,0.25,0.02,0.33c-0.04,0.04-0.1,0.06-0.15,0.07
		c-0.09,0.01-0.18,0.01-0.26-0.04c-0.08-0.04-0.13-0.14-0.11-0.22l0.01,0.01C434.59,190.78,434.64,190.66,434.72,190.62z
		 M418.8,197.27c-0.05,0.03-0.11,0.04-0.16,0.04c-0.1,0-0.12,0.02-0.22,0l-0.13-0.01c-0.08-0.04-0.13-0.06-0.17-0.15
		c-0.05-0.22,0.06-0.39,0.29-0.44c0.23-0.05,0.47,0.14,0.47,0.37C418.88,197.15,418.86,197.23,418.8,197.27z M419.05,195.42
		c-0.09,0.15-0.29,0.23-0.46,0.17c-0.16-0.07-0.2-0.27-0.2-0.32c0-0.03-0.01-0.12-0.01-0.15c0-0.05,0.02-0.14,0.08-0.19
		c0.06-0.05,0.15-0.06,0.23-0.08c0.06-0.01,0.13-0.02,0.19,0c0.04,0.02,0.08,0.05,0.11,0.09
		C419.11,195.07,419.14,195.27,419.05,195.42z M421.24,198.98c-0.05,0.05-0.12,0.07-0.2,0.08c-0.11,0.02-0.24,0.01-0.34-0.05
		c-0.1-0.06-0.17-0.18-0.14-0.29l0.01,0.01c-0.08-0.09-0.02-0.24,0.09-0.29c0.11-0.05,0.24-0.04,0.36-0.02
		c0.04,0.01,0.09,0.01,0.12,0.04c0.03,0.02,0.04,0.05,0.06,0.08C421.29,198.68,421.35,198.86,421.24,198.98z M433.16,189.68
		c0.05-0.05,0.1-0.08,0.16-0.12c0.05-0.04,0.1-0.08,0.16-0.07c0.03,0.01,0.06,0.03,0.08,0.06c0.04,0.05,0.08,0.1,0.08,0.16
		c0,0.09-0.08,0.15-0.15,0.2c0,0-0.02,0.02-0.06,0.04c-0.04,0.02-0.13,0.02-0.19,0c-0.06-0.01-0.12-0.05-0.14-0.11
		C433.08,189.8,433.12,189.73,433.16,189.68z M433.67,191.4c0.01,0.08,0,0.18-0.07,0.23c-0.07,0.05-0.2,0-0.19-0.08l-0.02,0.01
		c-0.12-0.05-0.13-0.2-0.14-0.33c0-0.05,0-0.1,0.02-0.15c0.02-0.05,0.07-0.09,0.12-0.09c0.04,0,0.08,0.03,0.11,0.06
		C433.59,191.14,433.65,191.27,433.67,191.4z M433.12,193.43c0.08-0.04,0.18-0.03,0.27-0.02c0.03,0,0.07,0.01,0.1,0.03
		c0.02,0.02,0.03,0.04,0.04,0.06c0.06,0.11,0.11,0.25,0.02,0.33c-0.04,0.04-0.1,0.06-0.15,0.07c-0.09,0.01-0.18,0.01-0.26-0.04
		s-0.13-0.14-0.11-0.22l0.01,0.01C432.99,193.59,433.04,193.47,433.12,193.43z M426.23,171.23c0.09-0.31,0.14-0.47,0.28-0.7
		c0.03-0.05,0.06-0.11,0.11-0.17c0.23,0.63,0.87,1.58,1.57,1.14c0.32-0.2,0.49-0.53,0.62-0.86c0.07-0.2,0.14-0.4,0.15-0.62
		c0.02-0.32-0.08-0.65-0.17-0.98c-0.04-0.13-0.08-0.27-0.21-0.37c-0.13-0.1-0.62,0.07-0.62,0.05c0-0.02,0.14-0.18,0.14-0.18
		c0.06-0.08,0.12-0.17,0.18-0.25c0.45-0.61,0.86-1.23,1.46-1.71c0.07-0.05,0.13-0.11,0.19-0.16c0.15-0.17,0.36-0.33,0.52-0.48
		c0.06-0.07,0.12-0.14,0.15-0.22c0.04-0.11,0.06-0.25,0.17-0.28c0.12,0.27,0.09,0.58-0.03,0.85c-0.11,0.27-0.3,0.5-0.5,0.72
		c-0.05,0.05-0.1,0.1-0.15,0.16c0,0.01,0,0.02,0,0.02c0,0.04,0,0.08,0.01,0.12c0,0.03,0,0.07,0,0.1c0,0.05,0,0.1,0,0.16
		c0,0.02,0,0.05,0,0.07c0,0.08,0,0.15-0.01,0.22c-0.04,0.58-0.03,0.81-0.03,0.81s0,0.02,0,0.02c-0.01,0.03-0.03,0.19-0.07,0.41
		c-0.05,0.32-0.13,0.76-0.18,1.11c-0.03,0.18-0.06,0.35-0.07,0.45c-0.02,0.11-0.07,0.24-0.14,0.36c-0.05,0.1-0.11,0.19-0.18,0.29
		c-0.02,0.04-0.05,0.07-0.07,0.11c-0.15,0.2-0.28,0.35-0.28,0.35s-0.54,0.53-1.03,1.02c-0.3,0.29-0.57,0.56-0.71,0.69
		c-0.15,0.14-0.31,0.23-0.46,0.29c-0.12,0.05-0.24,0.09-0.35,0.1c-0.08,0.01-0.14,0-0.2-0.02l0,0c0.15-0.23,0.19-0.31,0.23-0.6
		c0.01-0.08,0.01-0.28-0.01-0.36c-0.02-0.09-0.12-0.37-0.16-0.46C426.23,172.06,426.12,171.62,426.23,171.23z M430.01,190.92
		c0.6,0.11,1.24,0.88,0.38,1.99c-0.61,0.78-0.43,3.37-1.65,3.78c-2.39,0.82-3.2-1.11-4.15-1.59c-0.8-0.41-1.75-0.65-1.9-1.54
		c-0.15-0.89,2.16-1.75,3.19-2.07C426.91,191.16,428.92,190.71,430.01,190.92z M417.85,143.85c0.12-0.06,0.26-0.04,0.4-0.03
		c1.2,0.1,2.34-0.62,3.06-1.56c0.72-0.94,1.64-3.09,1.45-3.2c-0.19-0.11-1.03,0.36-1.42,0.73c-0.39,0.38-0.71,0.81-1.11,1.18
		c-0.4,0.37-1.3,0.84-1.45,0.66c-0.15-0.17,0.08-0.52,0.19-0.76c0.16-0.35,0.34-0.7,0.6-0.99c0.44-0.48,1.06-0.76,1.6-1.13
		c0.54-0.37,0.79-0.71,0.96-1.33c0.04-0.14-0.11-0.24,0.04-0.32c0.14-0.09,1.35,1.3,1.96,3.08c0.62,1.77,1.08,3.01,0.97,4.45
		c-0.11,1.3-1.2,2.17-2.19,1.77c-0.14-0.1,0.35-0.24,0.78-0.44c-0.28,0.07-0.6,0.14-1.44,0.14c-1.35,0-1.92,0.18-2.96-0.01
		c0,0-0.34-0.04-0.68-0.15c-0.61-0.21,0.56-0.31,0.85-0.44c0.37-0.16,0.68-0.26,0.75-0.51c0.04-0.14-0.04-0.23-0.07-0.26
		c-0.05-0.05-0.19-0.05-0.36-0.06c-0.72-0.03-1.1-0.12-1.78-0.37c-0.18-0.06-0.25-0.17-0.28-0.2
		C417.62,144.03,417.72,143.91,417.85,143.85z M417.33,198.83c0.23-0.05,0.47,0.15,0.47,0.37c0,0.07-0.02,0.15-0.08,0.19
		c-0.05,0.03-0.11,0.04-0.16,0.04c-0.1,0-0.21,0-0.31-0.02l-0.08-0.02c-0.09,0-0.1-0.07-0.13-0.13
		C416.98,199.05,417.11,198.88,417.33,198.83z M416.1,195.45c0.09-0.09,0.23-0.1,0.36-0.11c0.03,0,0.06,0,0.09,0.01
		c0.02,0.01,0.04,0.03,0.05,0.04c0.11,0.14,0.12,0.35,0.01,0.49c-0.11,0.14-0.2,0.16-0.37,0.16c-0.05,0-0.14-0.04-0.16-0.06
		c-0.02-0.02-0.06-0.15-0.07-0.19C416,195.7,415.97,195.58,416.1,195.45z M400.04,176.49c0.71,0.19,1.44,0.28,2.18,0.29v0
		c0.08,0,0.16,0.01,0.25,0c0.49-0.01,0.75,0,1.13-0.08c0.29-0.06,0.4-0.1,0.59-0.16c0.05-0.01,0.09-0.03,0.11-0.04
		c0.67-0.28,1.38-0.48,2.09-0.62c0.07-0.01,0.14-0.04,0.21-0.05c-0.01,0.04-0.01,0.07,0,0.11c0.01,0.04,0.02,0.07,0.04,0.11
		c0.02,0.06,0.03,0.13,0.04,0.2c0.01,0.07,0.02,0.14,0.04,0.2c0.07,0.28,0.21,0.54,0.41,0.75c0.31,0.34,0.75,0.55,1.21,0.6
		c0.11,0.01,0.23,0.01,0.34-0.02c0.1-0.03,0.2-0.07,0.28-0.13c0.15-0.11,0.27-0.28,0.36-0.46c0.01-0.01,0.02-0.02,0.02-0.04
		c0.01-0.01,0.01-0.03,0.02-0.04c0.04-0.08,0.07-0.17,0.1-0.26c0.03-0.08,0.05-0.17,0.08-0.25c0.05-0.17,0.09-0.35,0.09-0.53
		c0-0.18,0.04-0.25,0.08-0.28c0.04-0.02,0.1-0.01,0.16,0c0.07,0.01,0.17,0.04,0.24,0.08c0.1,0.05,0.2,0.11,0.29,0.19
		c0.22,0.18,0.45,0.43,0.67,0.69c0.22,0.26,0.44,0.53,0.62,0.74c0.19,0.23,0.38,0.38,0.57,0.48c0.01,0.11-0.11,0.14-0.28,0.16
		c-0.1,0.01-0.22,0.01-0.36,0.02c-0.1,0.01-0.18,0.01-0.26,0.02c-0.15,0.01-0.28,0.02-0.45,0.04c-0.1,0.01-0.21,0.03-0.33,0.05
		c-0.13,0.03-0.36,0.09-0.64,0.17c-0.39,0.07-0.77,0.13-1.16,0.2c-0.18,0.03-0.35,0.06-0.53,0.08c-0.35,0.05-0.71,0.1-1.07,0.1
		c-0.54,0.01-1.09-0.08-1.57-0.31c-0.06-0.03-0.12-0.07-0.18-0.11c-0.1-0.06-0.19-0.11-0.28-0.17c-0.06-0.04-0.13-0.08-0.19-0.12
		c-0.17-0.11-0.34-0.22-0.51-0.32c-0.21-0.16-0.4-0.31-0.55-0.43c-0.55,0.12-1.11,0.19-1.68,0.18v0c-0.05,0-0.1,0-0.16,0
		c-0.79-0.05-1.6-0.35-2.11-0.94c-0.03-0.03-0.05-0.07-0.03-0.1C399.95,176.47,400,176.48,400.04,176.49z M374.95,155.79
		c-0.26-0.98,0.33-1.88,1.09-2.43c-0.08,0.1-0.15,0.21-0.21,0.34c-0.01,0.02-0.01,0.06-0.01,0.08c0.01,0.05,0.02,0.08,0.04,0.1
		c0.08,0.06,0.21-0.02,0.3-0.07c0.1-0.05,0.17-0.13,0.25-0.2c0.27-0.24,0.65-0.37,1.01-0.4c-0.43,0.25-0.57,0.79-0.61,1.28
		c-0.05,0.71,0.05,1.43,0.29,2.1c0.04,0.1,0.09,0.22,0.19,0.27c0.12,0.05,0.27-0.02,0.35-0.12c0.08-0.11,0.11-0.24,0.15-0.37
		c0.22-0.76,0.74-1.44,1.44-1.85c0.42-0.25,0.88-0.4,1.35-0.55c-0.27,0.49-0.54,0.97-0.81,1.46c-0.15,0.26-0.29,0.52-0.37,0.81
		c-0.1,0.35-0.1,0.73-0.29,1.04c-0.08,0.13-0.19,0.24-0.24,0.39c-0.05,0.14,0,0.34,0.15,0.38c0.1,0.03,0.2-0.03,0.3-0.08
		c0.65-0.37,1.27-0.82,1.71-1.43c0.19-0.26,0.35-0.55,0.55-0.81c0.38-0.49,0.92-0.84,1.46-1.18c0.01,0.21-0.04,0.4-0.14,0.59
		c-0.31,0.6-0.76,1.13-1.11,1.71c-0.35,0.58-0.63,1.25-0.54,1.92c0.08,0.05,0.18-0.01,0.25-0.08c0.59-0.53,1.18-1.07,1.64-1.71
		c0.23-0.31,0.42-0.65,0.68-0.95c0.33-0.39,0.76-0.7,1.19-0.98c0.1-0.06,0.19,0.1,0.21,0.21c0.11,0.56,0.08,1.15-0.09,1.69
		c-0.11,0.36-0.27,0.7-0.37,1.05c-0.12,0.44-0.15,0.91-0.07,1.36c0.02,0.14,0.08,0.3,0.23,0.33c0.09,0.02,0.18-0.03,0.26-0.08
		c0.54-0.32,1.08-0.65,1.52-1.09c0.17-0.18,0.33-0.37,0.48-0.56l0.05,0.04c-0.82,1.74-1.65,3.37-2.92,4.87
		c-1.34,1.59-4.19,3.14-5.3,0.4C377.95,160.53,375.77,158.61,374.95,155.79z M384.59,191.63c-3.14-2.32-5.56-5.2-6.7-9.05
		c-0.87-3.74,0.24-8.33-0.17-12.11c1.14,3.52,0.99,7.39,1.97,10.92c0.58,1.68,1.51,3.23,2.69,4.63c1.79,2.2,3.93,3.96,6.19,5.56
		c1.12,0.72,2.57,1.1,3.74,1.79c1.13,0.62,2.28,1.36,3.05,2.39c-0.97-0.85-2.14-1.37-3.33-1.84c-1.48-0.57-3.25-0.67-5.29-1.23
		C385.95,192.48,385.23,192.11,384.59,191.63z"/>
	<path class="st0" d="M405.14,202.75c-0.08,0.09-0.15,0.18-0.23,0.27c-1.54,1.71-3.4,3.18-5.22,4.58c1.94-1.35,3.91-2.74,5.56-4.42
		c0.08-0.09,0.17-0.17,0.25-0.26C405.38,202.86,405.26,202.81,405.14,202.75"/>
</g>
</svg>
