<?xml version="1.0" encoding="utf-8"?>
<!-- Generator: Adobe Illustrator 26.0.1, SVG Export Plug-In . SVG Version: 6.00 Build 0)  -->
<svg version="1.1" id="Layer_1" xmlns="http://www.w3.org/2000/svg" xmlns:xlink="http://www.w3.org/1999/xlink" x="0px" y="0px"
	 viewBox="0 0 700 80" style="enable-background:new 0 0 700 80;" xml:space="preserve">
<style type="text/css">
	.st0{fill:#ECE3D2;}
	.st1{clip-path:url(#SVGID_00000179622956394664380930000002497802308039947958_);fill:#ECE3D2;}
	.st2{clip-path:url(#SVGID_00000005971971141772153970000000423372423277041318_);fill:#ECE3D2;}
	.st3{clip-path:url(#SVGID_00000103256740046756804850000006699517358027373964_);fill:#ECE3D2;}
	.st4{clip-path:url(#SVGID_00000182530626141640871920000003701968160293496224_);fill:#ECE3D2;}
	.st5{clip-path:url(#SVGID_00000053539166102951931760000001593660014174650016_);fill:#ECE3D2;}
</style>
<g>
	<polygon class="st0" points="90.76,18.94 90.76,51.33 95.51,51.33 95.51,37.6 106.93,37.6 106.93,33.28 95.51,33.28 95.51,23.26 
		109.85,23.26 109.85,18.94 	"/>
	<g>
		<defs>
			<rect id="SVGID_1_" x="90.76" y="17.43" width="518.48" height="45.14"/>
		</defs>
		<clipPath id="SVGID_00000016790612306316302010000010608846857213019576_">
			<use xlink:href="#SVGID_1_"  style="overflow:visible;"/>
		</clipPath>
		<path style="clip-path:url(#SVGID_00000016790612306316302010000010608846857213019576_);fill:#ECE3D2;" d="M127.15,46.72
			c1.1-0.63,1.96-1.51,2.59-2.63c0.63-1.13,0.94-2.4,0.94-3.81c0-1.38-0.31-2.62-0.94-3.72c-0.63-1.1-1.47-1.96-2.54-2.59
			c-1.07-0.63-2.26-0.94-3.57-0.94c-1.29,0-2.45,0.31-3.5,0.94c-1.05,0.63-1.89,1.49-2.52,2.59c-0.63,1.1-0.94,2.34-0.94,3.72
			c0,1.41,0.31,2.68,0.94,3.81c0.63,1.13,1.47,2.01,2.52,2.63c1.05,0.63,2.22,0.94,3.5,0.94C124.88,47.66,126.05,47.35,127.15,46.72
			 M117.86,50.44c-1.74-0.97-3.13-2.33-4.18-4.09c-1.05-1.75-1.57-3.76-1.57-6.02c0-2.25,0.52-4.26,1.57-6.02
			c1.05-1.75,2.45-3.11,4.18-4.07c1.74-0.96,3.66-1.44,5.76-1.44c2.1,0,4.03,0.48,5.81,1.44c1.77,0.96,3.17,2.31,4.21,4.07
			c1.03,1.76,1.55,3.76,1.55,6.02c0,2.26-0.52,4.27-1.55,6.02c-1.03,1.76-2.44,3.12-4.21,4.09c-1.77,0.97-3.71,1.46-5.81,1.46
			C121.52,51.9,119.61,51.41,117.86,50.44"/>
	</g>
	<rect x="141.12" y="17.43" class="st0" width="4.51" height="33.9"/>
	<rect x="153.01" y="17.43" class="st0" width="4.51" height="33.9"/>
	<g>
		<defs>
			<rect id="SVGID_00000028292650631873748520000001234519060453487504_" x="90.76" y="17.43" width="518.48" height="45.14"/>
		</defs>
		<clipPath id="SVGID_00000089538999182799811350000016264075933505096365_">
			<use xlink:href="#SVGID_00000028292650631873748520000001234519060453487504_"  style="overflow:visible;"/>
		</clipPath>
		<path style="clip-path:url(#SVGID_00000089538999182799811350000016264075933505096365_);fill:#ECE3D2;" d="M178.49,46.72
			c1.1-0.63,1.96-1.51,2.59-2.63c0.63-1.13,0.94-2.4,0.94-3.81c0-1.38-0.31-2.62-0.94-3.72c-0.63-1.1-1.47-1.96-2.54-2.59
			c-1.07-0.63-2.26-0.94-3.57-0.94c-1.29,0-2.45,0.31-3.5,0.94c-1.05,0.63-1.89,1.49-2.52,2.59c-0.63,1.1-0.94,2.34-0.94,3.72
			c0,1.41,0.31,2.68,0.94,3.81c0.63,1.13,1.47,2.01,2.52,2.63c1.05,0.63,2.22,0.94,3.5,0.94C176.22,47.66,177.4,47.35,178.49,46.72
			 M169.21,50.44c-1.74-0.97-3.13-2.33-4.18-4.09c-1.05-1.75-1.57-3.76-1.57-6.02c0-2.25,0.52-4.26,1.57-6.02
			c1.05-1.75,2.44-3.11,4.18-4.07c1.74-0.96,3.66-1.44,5.76-1.44c2.1,0,4.03,0.48,5.81,1.44c1.77,0.96,3.17,2.31,4.21,4.07
			c1.03,1.76,1.55,3.76,1.55,6.02c0,2.26-0.52,4.27-1.55,6.02c-1.03,1.76-2.44,3.12-4.21,4.09c-1.77,0.97-3.71,1.46-5.81,1.46
			C172.87,51.9,170.95,51.41,169.21,50.44"/>
	</g>
	<polygon class="st0" points="189.17,29.37 194.06,29.37 200.03,46.44 198.66,46.44 204.63,29.37 208.91,29.37 214.93,46.44 
		213.57,46.44 219.59,29.37 224.43,29.37 216.34,51.33 212.58,51.33 206.05,33.51 207.46,33.51 201.2,51.33 197.44,51.33 	"/>
	<g>
		<defs>
			<rect id="SVGID_00000145017364297491442080000004910431217647041955_" x="90.76" y="17.43" width="518.48" height="45.14"/>
		</defs>
		<clipPath id="SVGID_00000034063475106875449200000003066384263523578047_">
			<use xlink:href="#SVGID_00000145017364297491442080000004910431217647041955_"  style="overflow:visible;"/>
		</clipPath>
		<path style="clip-path:url(#SVGID_00000034063475106875449200000003066384263523578047_);fill:#ECE3D2;" d="M228.99,29.37h4.51
			v21.96h-4.51V29.37z M229.01,23.43c-0.61-0.55-0.92-1.23-0.92-2.04c0-0.85,0.3-1.54,0.92-2.09c0.61-0.55,1.34-0.82,2.19-0.82
			c0.85,0,1.58,0.28,2.21,0.82c0.62,0.55,0.94,1.25,0.94,2.09c0,0.81-0.31,1.5-0.94,2.04c-0.63,0.55-1.36,0.82-2.21,0.82
			C230.35,24.25,229.62,23.98,229.01,23.43"/>
		<path style="clip-path:url(#SVGID_00000034063475106875449200000003066384263523578047_);fill:#ECE3D2;" d="M240.88,29.37h4.51
			v5.41l-0.47-0.7c0.19-1.1,0.7-2.05,1.53-2.85c0.83-0.8,1.8-1.4,2.92-1.81c1.11-0.41,2.15-0.61,3.13-0.61
			c1.85,0,3.43,0.39,4.75,1.17c1.32,0.78,2.33,1.92,3.03,3.41c0.71,1.49,1.06,3.27,1.06,5.34v12.6h-4.51V39.01
			c0-1.16-0.21-2.18-0.64-3.06c-0.42-0.88-1.02-1.55-1.79-2.02c-0.77-0.47-1.62-0.71-2.56-0.71c-1.07,0-2.09,0.22-3.06,0.66
			c-0.97,0.44-1.78,1.13-2.42,2.07c-0.64,0.94-0.96,2.13-0.96,3.57v11.8h-4.51V29.37z"/>
		<path style="clip-path:url(#SVGID_00000034063475106875449200000003066384263523578047_);fill:#ECE3D2;" d="M282,46.72
			c1.11-0.63,1.99-1.5,2.63-2.61c0.64-1.11,0.96-2.38,0.96-3.79c0-1.47-0.34-2.76-1.01-3.85c-0.68-1.1-1.57-1.94-2.68-2.54
			c-1.11-0.59-2.25-0.89-3.41-0.89c-1.29,0-2.45,0.31-3.5,0.94c-1.05,0.63-1.88,1.49-2.49,2.59c-0.61,1.1-0.92,2.34-0.92,3.72
			c0,1.35,0.3,2.58,0.92,3.71c0.61,1.13,1.45,2.02,2.52,2.68c1.06,0.66,2.22,0.99,3.48,0.99C279.72,47.66,280.89,47.35,282,46.72
			 M272.27,60.97c-1.77-1.07-3.17-2.54-4.21-4.42l3.81-1.93c0.59,1.16,1.47,2.08,2.63,2.75c1.16,0.67,2.35,1.01,3.57,1.01
			c2.42,0,4.28-0.77,5.6-2.3c1.32-1.54,1.98-4.01,1.98-7.43v-2.49l0.47,0.8c-0.5,1.54-1.53,2.74-3.08,3.62
			c-1.55,0.88-3.24,1.32-5.05,1.32c-1.97,0-3.8-0.48-5.48-1.44c-1.68-0.95-3-2.32-3.97-4.09c-0.97-1.77-1.46-3.78-1.46-6.04
			c0-2.29,0.49-4.3,1.46-6.04c0.97-1.74,2.29-3.09,3.95-4.04c1.66-0.96,3.49-1.44,5.5-1.44c1.82,0,3.5,0.44,5.03,1.32
			c1.53,0.88,2.57,2.09,3.1,3.62l-0.47,0.8v-5.17h4.51v18.95c0,4.95-1.06,8.56-3.17,10.84c-2.12,2.27-5.09,3.41-8.91,3.41
			C275.97,62.57,274.04,62.03,272.27,60.97"/>
		<path style="clip-path:url(#SVGID_00000034063475106875449200000003066384263523578047_);fill:#ECE3D2;" d="M313.97,50.44
			c-1.71-0.97-3.07-2.34-4.09-4.11c-1.02-1.77-1.53-3.79-1.53-6.04c0-2.26,0.51-4.25,1.53-6c1.02-1.74,2.38-3.09,4.09-4.04
			c1.71-0.96,3.61-1.44,5.71-1.44c2.07,0,3.94,0.48,5.62,1.44c1.68,0.96,2.99,2.29,3.95,4c0.96,1.71,1.44,3.71,1.44,5.99
			c0,0.44-0.05,1.1-0.14,1.97h-18.99V38.5h14.62c-0.16-1.13-0.53-2.11-1.13-2.94c-0.6-0.83-1.34-1.47-2.23-1.9
			c-0.89-0.44-1.93-0.66-3.13-0.66c-1.38,0-2.58,0.28-3.6,0.85c-1.02,0.56-1.81,1.41-2.37,2.54c-0.56,1.13-0.86,2.51-0.89,4.14
			c0.03,1.6,0.34,2.92,0.94,3.97c0.59,1.05,1.42,1.85,2.47,2.4c1.05,0.55,2.26,0.82,3.64,0.82c1.32,0,2.53-0.29,3.64-0.87
			c1.11-0.58,1.98-1.37,2.61-2.37l3.62,1.69c-0.91,1.85-2.27,3.27-4.09,4.25c-1.82,0.99-3.81,1.48-5.97,1.48
			C317.58,51.9,315.68,51.41,313.97,50.44"/>
	</g>
	<polygon class="st0" points="333.13,29.37 337.97,29.37 345.12,47.19 343.8,47.19 350.9,29.37 355.79,29.37 346.58,51.33 
		342.3,51.33 	"/>
	<g>
		<defs>
			<rect id="SVGID_00000110463150803259541240000008906675177613870999_" x="90.76" y="17.43" width="518.48" height="45.14"/>
		</defs>
		<clipPath id="SVGID_00000160165948163453236370000005918318793959642253_">
			<use xlink:href="#SVGID_00000110463150803259541240000008906675177613870999_"  style="overflow:visible;"/>
		</clipPath>
		<path style="clip-path:url(#SVGID_00000160165948163453236370000005918318793959642253_);fill:#ECE3D2;" d="M363.95,50.44
			c-1.71-0.97-3.07-2.34-4.09-4.11c-1.02-1.77-1.53-3.79-1.53-6.04c0-2.26,0.51-4.25,1.53-6c1.02-1.74,2.38-3.09,4.09-4.04
			c1.71-0.96,3.61-1.44,5.71-1.44c2.07,0,3.94,0.48,5.62,1.44c1.68,0.96,2.99,2.29,3.95,4c0.96,1.71,1.44,3.71,1.44,5.99
			c0,0.44-0.05,1.1-0.14,1.97h-18.99V38.5h14.62c-0.16-1.13-0.53-2.11-1.13-2.94c-0.6-0.83-1.34-1.47-2.23-1.9
			c-0.89-0.44-1.93-0.66-3.13-0.66c-1.38,0-2.58,0.28-3.6,0.85c-1.02,0.56-1.81,1.41-2.37,2.54c-0.56,1.13-0.86,2.51-0.89,4.14
			c0.03,1.6,0.34,2.92,0.94,3.97c0.59,1.05,1.42,1.85,2.47,2.4c1.05,0.55,2.26,0.82,3.64,0.82c1.32,0,2.53-0.29,3.64-0.87
			c1.11-0.58,1.98-1.37,2.61-2.37l3.62,1.69c-0.91,1.85-2.27,3.27-4.09,4.25c-1.82,0.99-3.81,1.48-5.97,1.48
			C367.56,51.9,365.66,51.41,363.95,50.44"/>
		<path style="clip-path:url(#SVGID_00000160165948163453236370000005918318793959642253_);fill:#ECE3D2;" d="M386.54,29.37h4.56
			v7.1l-0.52-0.09c0.47-2.6,1.27-4.51,2.4-5.74c1.13-1.22,2.54-1.83,4.23-1.83c0.72,0,1.45,0.08,2.19,0.23
			c0.74,0.16,1.28,0.34,1.62,0.56l-0.8,4.28c-1.03-0.5-2.12-0.75-3.24-0.75c-1.94,0-3.41,0.93-4.39,2.8
			c-0.99,1.87-1.48,4.37-1.48,7.5v7.9h-4.56V29.37z"/>
	</g>
	<polygon class="st0" points="420.25,29.37 413.85,44.85 407.51,29.37 402.57,29.37 411.39,50.53 406.71,62 411.41,62 425.1,29.37 	
		"/>
	<g>
		<defs>
			<rect id="SVGID_00000088813570847284255670000014846231423981936523_" x="90.76" y="17.43" width="518.48" height="45.14"/>
		</defs>
		<clipPath id="SVGID_00000059305082017701061610000008483477731708591268_">
			<use xlink:href="#SVGID_00000088813570847284255670000014846231423981936523_"  style="overflow:visible;"/>
		</clipPath>
		<path style="clip-path:url(#SVGID_00000059305082017701061610000008483477731708591268_);fill:#ECE3D2;" d="M455.21,46.72
			c1.11-0.63,1.99-1.5,2.63-2.61c0.64-1.11,0.96-2.38,0.96-3.79c0-1.47-0.34-2.76-1.01-3.85c-0.68-1.1-1.57-1.94-2.68-2.54
			c-1.11-0.59-2.25-0.89-3.41-0.89c-1.29,0-2.45,0.31-3.5,0.94c-1.05,0.63-1.88,1.49-2.49,2.59c-0.61,1.1-0.92,2.34-0.92,3.72
			c0,1.35,0.3,2.58,0.92,3.71c0.61,1.13,1.45,2.02,2.52,2.68c1.06,0.66,2.22,0.99,3.48,0.99C452.93,47.66,454.1,47.35,455.21,46.72
			 M445.71,50.46c-1.68-0.95-3-2.32-3.97-4.09c-0.97-1.77-1.46-3.78-1.46-6.04c0-2.29,0.49-4.3,1.46-6.04
			c0.97-1.74,2.29-3.09,3.95-4.04c1.66-0.96,3.49-1.44,5.5-1.44c1.19,0,2.35,0.19,3.48,0.56c1.13,0.38,2.11,0.95,2.94,1.72
			c0.83,0.77,1.42,1.69,1.76,2.75l-0.52,0.7V17.43h4.51v33.9h-4.51v-5.31l0.52,0.75c-0.31,1.07-0.9,1.99-1.76,2.77
			c-0.86,0.78-1.86,1.37-2.99,1.76c-1.13,0.39-2.27,0.59-3.43,0.59C449.21,51.9,447.39,51.42,445.71,50.46"/>
		<path style="clip-path:url(#SVGID_00000059305082017701061610000008483477731708591268_);fill:#ECE3D2;" d="M484.22,46.7
			c1.11-0.64,1.99-1.52,2.63-2.63c0.64-1.11,0.96-2.36,0.96-3.74s-0.34-2.63-1.01-3.74c-0.68-1.11-1.57-1.98-2.69-2.61
			c-1.11-0.63-2.27-0.94-3.45-0.94c-1.22,0-2.37,0.34-3.44,1.01c-1.06,0.68-1.91,1.57-2.51,2.68c-0.61,1.11-0.92,2.31-0.92,3.6
			c0,1.29,0.32,2.49,0.94,3.62c0.63,1.13,1.46,2.03,2.51,2.7c1.06,0.67,2.22,1.01,3.5,1.01C481.96,47.66,483.1,47.34,484.22,46.7
			 M474.7,50.41c-1.63-0.99-2.93-2.36-3.9-4.12c-0.97-1.75-1.46-3.74-1.46-5.97c0-2.16,0.47-4.11,1.41-5.85
			c0.94-1.74,2.24-3.12,3.9-4.14c1.66-1.02,3.51-1.53,5.55-1.53c1.22,0,2.4,0.2,3.53,0.59c1.13,0.39,2.1,0.98,2.92,1.76
			c0.82,0.78,1.39,1.71,1.74,2.77l-0.51,0.61v-5.17h4.52v21.96h-4.52V45.6l0.51,0.7c-0.34,1.07-0.92,2.03-1.74,2.89
			c-0.81,0.86-1.81,1.53-2.96,2c-1.16,0.47-2.38,0.71-3.67,0.71C478.1,51.9,476.32,51.4,474.7,50.41"/>
	</g>
	<polygon class="st0" points="514.62,29.37 508.22,44.85 501.88,29.37 496.94,29.37 505.76,50.53 501.08,62 505.78,62 519.46,29.37 
			"/>
	<path class="st0" d="M590.62,32.56l0.44-0.44L590.62,32.56z M597.51,39.47v-0.91l-5.52-5.55h0.01l-0.02-0.02l1.91-1.91l0-0.9
		l-0.9,0l-1.92,1.92l-1.92-1.92l-0.9,0l0,0.9l1.93,1.93l0.01,0l6.43,6.46H597.51z"/>
	<polygon class="st0" points="552.54,30.13 550.59,32.08 547.25,28.76 544.92,28.76 543.27,28.76 542.56,28.76 541.75,28.76 
		538.55,28.76 538.55,28.76 535.99,31.32 535.99,32.22 536.89,32.22 538.85,30.27 541.75,30.27 542.56,30.27 543.27,30.27 
		544.92,30.27 546.95,30.27 546.96,30.27 549.83,33.14 549.82,33.14 549.82,36.2 549.82,36.89 549.82,39.61 549.82,41.42 
		549.82,44.14 549.82,45.54 549.82,47.86 546.92,50.76 545.15,50.76 543.27,50.76 542.56,50.76 540.63,50.76 538.85,50.76 
		535.98,47.89 535.98,44.14 535.22,43.39 534.47,44.14 534.47,47.89 534.75,48.17 534.47,47.89 532.37,50 532.37,50.9 533.27,50.9 
		535.22,48.95 538.55,52.27 540.63,52.27 542.56,52.27 543.27,52.27 545.15,52.27 547.23,52.27 550.58,48.92 551.33,48.16 
		551.33,45.54 551.33,44.14 551.33,41.42 551.33,39.61 551.33,36.89 551.33,36.2 551.33,33.14 553.45,31.03 553.45,30.13 	"/>
	<path class="st0" d="M575.18,50.76h-1.3h-2.39h-0.71h-1.42h-2.27l-2.88-2.88v-3.56v-0.18v-2.72v-1.81v-2.72V36.2v-3.06l2.87-2.87
		h1.98h1.72h0.71h2.09h1.6l2.87,2.87v3.06v0.69v2.72v1.81v2.72v0.18v3.56L575.18,50.76z M579.56,48.19v-3.86v-0.18v-2.72v-1.81
		v-2.72V36.2v-3.35l-3.33-3.33l0,0l-0.76-0.76h-1.9h-2.09h-0.71h-1.72h-2.28l-0.76,0.76l0,0l-3.33,3.34v3.34v0.69v2.72v1.81v2.72
		v0.18v3.86l0.76,0.76l0,0l2.57,2.57v0l0.76,0.76h2.57h1.42h0.71h2.39h1.61l0.76-0.76L579.56,48.19L579.56,48.19z"/>
	<polygon class="st0" points="606.38,32.09 604.43,30.14 603.53,30.14 603.53,31.04 605.47,32.98 605.45,33 605.45,33 599.92,38.56 
		599.92,39.47 600.83,39.47 607.25,33.02 607.25,33.02 609.24,31.03 609.24,30.13 608.34,30.13 	"/>
	<polygon class="st0" points="599.47,50.77 599.47,49.33 599.47,41.2 599.47,40.38 599.47,40.38 598.71,39.62 597.96,40.38 
		597.96,41.2 597.96,49.33 597.96,50.77 594.66,50.77 593.91,51.53 594.66,52.28 598.56,52.28 598.56,52.28 598.87,52.28 
		598.87,52.28 602.76,52.28 603.52,51.53 602.76,50.77 	"/>
</g>
</svg>
