<?xml version="1.0" encoding="utf-8"?>
<!-- Generator: Adobe Illustrator 26.0.1, SVG Export Plug-In . SVG Version: 6.00 Build 0)  -->
<svg version="1.1" id="Layer_1" xmlns="http://www.w3.org/2000/svg" xmlns:xlink="http://www.w3.org/1999/xlink" x="0px" y="0px"
	 viewBox="40 145 420 200" style="enable-background:new 0 0 500 500;" xml:space="preserve">
<style type="text/css">
	.st0{fill:#644678;}
	.st1{fill:#644678;}
</style>
<g>
	<path class="st0" d="M96.79,209.68l-14.38-3.97c-14.38-3.8-15.54-11.24-15.54-14.88c0-10.41,9.59-17.52,20.33-17.52
		c10.27,0,18.01,5.7,19.79,14.31c0.47,2.3,2.65,3.87,5,3.87h12.24c0-20.82-16.03-33.72-36.53-33.72
		c-20.16,0-37.85,13.39-37.85,33.39c0,9.42,3.97,23.81,28.27,29.92l14.55,3.64C101.91,227.2,111,232,111,242.08
		c0,9.42-7.94,18.02-21.49,18.02c-12.44,0-19.94-4.7-21.84-12.41c-0.52-2.1-2.55-3.48-4.72-3.48l-12.61,0
		c0,18.35,14.87,31.43,39.17,31.43c22.98,0,38.52-15.38,38.52-34.39C128.03,224.56,115.97,214.8,96.79,209.68z"/>
	<path class="st0" d="M440.6,194.47c-9.92,0-17.69,5.78-21.66,19.34v-12.47c0-2.7-2.19-4.88-4.88-4.88h-11.49v77.2h16.37v-27.77
		c0-20.83,6.61-35.88,20.66-35.88c1.88,0,4.06,0.24,6.42,0.85c2.73,0.71,5.5-1.05,6.01-3.83l1.78-9.74
		C451.35,195.79,445.88,194.47,440.6,194.47z"/>
	<path class="st0" d="M256.45,189.18v7.28h-9.99c-2.7,0-4.88,2.19-4.88,4.88v8.67h14.88v63.65h16.2v-63.65h17.69v-8.67
		c0-2.7-2.19-4.88-4.88-4.88h-12.81v-9.09c-0.16-9.75,3.47-17.69,16.86-17.69h0.73c2.7,0,4.88-2.19,4.88-4.88v-10.32h-3.96
		C268.35,154.47,256.45,166.54,256.45,189.18z"/>
	<path class="st0" d="M218.69,193.48h-6.43c-2.7,0-4.88,2.19-4.88,4.88v8.67c-4.96-8.76-15.54-13.55-26.78-13.55
		c-21.82,0-38.19,17.52-38.19,40.5c0,23.81,17.36,40.67,37.53,40.67c11.9,0,22.48-6.12,27.44-15.05v13.06h16.2v-74.3
		C223.57,195.67,221.38,193.48,218.69,193.48z M182.74,259.43c-13.56,0-23.97-11.57-23.97-25.46c0-13.72,10.41-25.29,23.63-25.29
		c12.4,0,24.8,10.41,24.8,25.29C207.2,248.52,195.63,259.43,182.74,259.43z"/>
	<path class="st0" d="M375.45,194.47h-6.43c-2.7,0-4.88,2.19-4.88,4.88v8.67c-4.96-8.76-15.54-13.55-26.78-13.55
		c-21.82,0-38.19,17.52-38.19,40.5c0,23.81,17.36,40.67,37.53,40.67c11.9,0,22.48-6.12,27.44-15.05v13.06h16.2v-74.3
		C380.34,196.65,378.15,194.47,375.45,194.47z M339.51,260.42c-13.56,0-23.97-11.57-23.97-25.46c0-13.72,10.41-25.29,23.63-25.29
		c12.4,0,24.8,10.41,24.8,25.29C363.97,249.51,352.4,260.42,339.51,260.42z"/>
</g>
<g>
	<polygon class="st1" points="182.48,296.52 178.94,292.87 177.31,292.87 177.3,294.55 181.12,298.48 181.12,302.01 181.12,305.43 
		181.12,310.48 181.12,313.85 181.12,318.89 181.12,320.69 181.12,325.25 176.78,329.72 176.78,331.4 178.41,331.4 182.46,327.23 
		182.48,327.25 182.48,327.24 184.44,329.26 184.44,329.27 187.65,332.57 189.01,333.97 194.08,333.97 195.64,333.97 196.92,333.97 
		200.54,333.97 203.6,333.97 204.96,332.57 204.96,332.57 205.83,331.67 205.84,331.67 208.77,328.65 208.77,330.89 208.77,332.2 
		208.77,334.26 210.13,335.66 211.49,334.26 211.49,332.2 211.49,330.89 211.49,325.84 211.49,323.79 211.49,318.89 210.13,317.49 
		208.77,318.89 208.77,323.79 208.77,325.28 206.54,327.58 206.52,327.56 203.01,331.17 200.54,331.17 196.92,331.17 195.64,331.17 
		194.08,331.17 189.6,331.17 186.09,327.56 186.08,327.58 183.84,325.28 183.84,320.69 183.84,318.89 183.84,313.85 183.84,310.48 
		183.84,305.43 183.84,302.01 183.84,298.48 187.65,294.55 187.65,292.87 186.02,292.87 	"/>
	<polygon class="st1" points="265.95,328.34 264.32,326.66 259.94,331.17 255.91,331.17 252.4,331.17 251.12,331.17 248.85,331.17 
		244.69,331.17 239.14,325.46 239.14,321.97 239.14,318.89 239.14,314.06 239.71,313.56 248.85,313.56 251.12,313.56 252.4,313.56 
		254.66,313.56 259.96,313.56 263.5,317.21 265.13,317.21 265.14,315.53 261.87,312.16 265.14,308.79 265.13,307.12 263.5,307.11 
		259.96,310.76 254.66,310.76 252.4,310.76 251.12,310.76 248.85,310.76 239.71,310.76 239.14,310.26 239.14,305.43 239.14,301.41 
		239.14,299.04 244.85,293.15 249.8,293.15 251.12,293.15 252.4,293.15 254.66,293.15 258.67,293.15 263.99,298.63 265.62,296.95 
		265.61,296.94 267.49,295.01 267.49,293.03 265.56,293.03 263.69,294.96 260.18,291.34 259.21,290.35 254.66,290.35 252.4,290.35 
		251.12,290.35 249.8,290.35 244.31,290.35 243.29,291.4 243.29,291.4 237.78,297.07 233.8,292.98 232.17,292.98 232.17,294.66 
		236.42,299.03 236.42,301.41 236.42,305.43 236.42,310.48 236.42,313.85 236.42,318.89 236.42,321.97 236.42,325.25 232.08,329.72 
		232.08,331.4 233.71,331.4 237.68,327.32 242.78,332.57 242.77,332.57 244.14,333.98 248.85,333.98 251.12,333.98 252.4,333.98 
		255.91,333.98 260.48,333.98 264.02,330.33 266.03,332.39 267.95,332.39 267.95,330.41 265.95,328.34 	"/>
	<polygon class="st1" points="324.88,328.47 324.88,328.47 323.24,326.78 318.87,331.3 313.05,331.3 311.33,331.3 310.05,331.3 
		309.55,331.3 303.61,331.3 298.07,325.58 298.07,319.56 298.07,319.02 298.07,314.19 298.63,313.69 302.78,313.69 310.05,313.69 
		311.33,313.69 314.01,313.69 318.89,313.69 322.43,317.34 324.06,317.33 324.07,315.66 320.8,312.29 324.07,308.92 324.06,307.24 
		322.43,307.24 318.89,310.88 314.01,310.88 311.33,310.88 310.05,310.88 302.78,310.88 298.63,310.88 298.07,310.39 298.07,305.56 
		298.07,303.91 298.07,299.16 303.78,293.28 307.71,293.28 310.05,293.28 311.33,293.28 312.38,293.28 317.6,293.28 322.92,298.76 
		324.55,297.07 324.54,297.07 326.42,295.13 326.42,293.15 324.49,293.15 322.62,295.08 319.11,291.47 319.11,291.47 318.14,290.47 
		312.38,290.47 311.33,290.47 310.05,290.47 308.88,290.47 303.24,290.47 302.22,291.53 302.21,291.53 296.71,297.2 292.73,293.1 
		291.1,293.11 291.1,294.79 295.34,299.16 295.34,304.32 295.34,305.56 295.34,310.6 295.34,313.97 295.34,319.02 295.34,319.56 
		295.34,325.38 291,329.85 291.01,331.52 292.64,331.53 296.61,327.44 301.71,332.7 301.7,332.7 303.06,334.1 308.39,334.1 
		310.05,334.1 311.33,334.1 313.05,334.1 319.41,334.1 322.95,330.45 324.96,332.52 326.88,332.52 326.88,330.54 	"/>
</g>
</svg>
